<?xml version="1.0" standalone="no"?>
<!DOCTYPE svg PUBLIC "-//W3C//DTD SVG 20010904//EN"
 "http://www.w3.org/TR/2001/REC-SVG-20010904/DTD/svg10.dtd">
<svg version="1.0" xmlns="http://www.w3.org/2000/svg"
 width="674.000000pt" height="468.000000pt" viewBox="0 0 674.000000 468.000000"
 preserveAspectRatio="xMidYMid meet">

<g transform="translate(0.000000,468.000000) scale(0.100000,-0.100000)"
fill="#000000" stroke="none">
<path d="M1934 4489 c-10 -17 13 -36 27 -22 12 12 4 33 -11 33 -5 0 -12 -5
-16 -11z"/>
<path d="M2183 4492 c-24 -4 -30 -16 -13 -27 10 -6 15 -105 5 -105 -3 0 -13 5
-23 11 -28 17 -73 -2 -100 -42 -33 -47 -27 -122 12 -156 33 -28 56 -29 90 -2
l26 20 0 -21 c0 -16 4 -20 16 -16 9 3 20 6 26 6 6 0 7 7 2 18 -4 9 -11 85 -14
167 -5 148 -5 150 -27 147z m-19 -154 c19 -27 22 -128 4 -146 -20 -20 -55 -13
-77 14 -41 53 -19 154 34 154 13 0 31 -10 39 -22z"/>
<path d="M2310 4494 c-13 -4 -14 -28 -12 -156 3 -136 2 -154 -14 -165 -15 -11
-10 -13 37 -13 41 1 50 3 37 11 -16 9 -18 28 -18 169 0 88 -3 159 -7 159 -5
-1 -15 -3 -23 -5z"/>
<path d="M1340 4473 c34 -12 40 -36 40 -153 0 -117 -6 -140 -40 -154 -8 -3 38
-5 103 -3 116 2 119 3 143 30 29 34 32 87 6 110 -10 10 -24 17 -31 17 -7 0 -1
14 14 32 20 23 25 38 20 57 -9 37 -22 49 -64 61 -36 10 -219 13 -191 3z m184
-34 c30 -23 33 -45 10 -77 -12 -18 -25 -22 -65 -22 l-49 0 0 60 0 60 39 0 c24
0 48 -8 65 -21z m10 -140 c59 -46 19 -119 -66 -119 l-48 0 0 70 0 70 44 0 c29
0 52 -7 70 -21z"/>
<path d="M2930 4467 c25 -12 25 -14 25 -147 0 -133 0 -135 -25 -147 -21 -11
-7 -13 101 -13 126 0 127 0 133 24 3 13 9 32 13 43 4 10 -6 3 -21 -15 -27 -31
-31 -33 -90 -30 l-61 3 -3 68 -3 67 49 0 c26 0 53 -5 60 -12 9 -9 12 -4 12 22
0 26 -3 31 -12 22 -7 -7 -34 -12 -60 -12 l-48 0 0 60 0 60 65 0 c60 0 65 -2
79 -27 14 -26 15 -26 16 -6 1 51 -4 53 -134 53 -104 0 -118 -2 -96 -13z"/>
<path d="M4340 4467 c25 -12 25 -14 25 -147 0 -133 0 -135 -25 -147 -21 -11
-7 -13 101 -13 l126 0 11 39 c17 55 15 58 -11 20 -22 -33 -25 -34 -87 -34
l-65 0 0 140 0 139 25 7 c16 4 -3 7 -50 8 -67 1 -72 -1 -50 -12z"/>
<path d="M2522 4418 c2 -6 48 -30 102 -53 53 -23 96 -46 95 -51 -1 -5 -45 -28
-98 -51 -52 -23 -97 -46 -99 -52 -2 -6 52 14 120 44 68 30 122 57 121 61 -1 4
-56 31 -123 60 -67 29 -120 48 -118 42z"/>
<path d="M3932 4418 c2 -6 48 -30 102 -53 53 -23 96 -46 95 -51 -1 -5 -45 -28
-98 -51 -52 -23 -97 -46 -99 -52 -2 -6 52 14 120 44 68 30 122 57 121 61 -1 4
-56 31 -123 60 -67 29 -120 48 -118 42z"/>
<path d="M1940 4374 c-12 -4 -14 -21 -11 -96 3 -79 1 -93 -15 -105 -15 -11
-11 -13 37 -13 41 1 50 3 37 11 -15 8 -18 25 -18 109 0 55 -3 99 -7 99 -5 -1
-15 -3 -23 -5z"/>
<path d="M3250 4367 c-29 -15 -42 -67 -16 -67 9 0 16 8 16 18 0 41 51 57 70
23 17 -32 12 -38 -44 -64 -57 -26 -73 -50 -62 -93 8 -32 48 -41 83 -19 24 16
27 16 35 1 12 -21 31 -20 52 3 16 18 16 19 -1 17 -16 -1 -18 9 -21 87 -3 84
-4 88 -28 97 -33 13 -54 12 -84 -3z m80 -127 c0 -33 -4 -42 -24 -52 -33 -14
-56 -4 -56 25 0 30 36 62 73 66 4 1 7 -17 7 -39z"/>
<path d="M3450 4374 c-12 -4 -14 -21 -11 -96 3 -79 1 -93 -15 -105 -15 -11
-11 -13 37 -13 41 1 50 3 37 11 -15 8 -18 24 -18 83 0 81 7 93 55 93 17 0 37
2 45 4 12 3 16 -11 18 -81 2 -71 0 -87 -14 -97 -15 -11 -10 -13 36 -13 46 0
51 2 36 13 -14 10 -16 25 -14 87 3 72 4 75 31 85 41 14 57 -12 57 -89 0 -64
-5 -79 -30 -89 -8 -3 12 -5 45 -5 33 0 53 2 45 5 -25 10 -30 25 -30 105 0 105
-32 135 -94 87 l-26 -20 0 20 c0 12 -1 21 -3 21 -1 0 -17 -4 -35 -10 -23 -6
-39 -6 -52 2 -14 9 -24 8 -44 -5 -23 -15 -26 -15 -26 -2 0 15 -3 16 -30 9z"/>
<path d="M4681 4366 c-51 -29 -67 -114 -32 -173 36 -57 115 -53 147 9 l16 33
-21 -22 c-29 -31 -75 -30 -106 2 -14 13 -25 33 -25 45 0 18 6 20 76 20 l76 0
-6 28 c-8 34 -50 72 -79 72 -12 -1 -33 -7 -46 -14z m69 -25 c18 -34 12 -41
-40 -41 -54 0 -58 4 -34 38 19 27 60 29 74 3z"/>
<path d="M4880 4367 c-29 -15 -42 -67 -16 -67 9 0 16 8 16 18 0 41 51 57 70
23 17 -32 12 -38 -44 -64 -57 -26 -73 -50 -62 -93 8 -32 48 -41 83 -19 24 16
27 16 35 1 12 -21 31 -20 52 3 16 18 16 19 -1 17 -16 -1 -18 9 -21 87 -3 84
-4 88 -28 97 -33 13 -54 12 -84 -3z m80 -127 c0 -33 -4 -42 -24 -52 -33 -14
-56 -4 -56 25 0 30 36 62 73 66 4 1 7 -17 7 -39z"/>
<path d="M5080 4374 c-12 -4 -14 -21 -11 -96 3 -79 1 -93 -15 -105 -15 -11
-11 -13 37 -13 41 1 50 3 37 11 -15 8 -18 24 -18 83 0 81 7 93 55 93 17 0 37
2 45 4 12 3 16 -11 18 -81 2 -71 0 -87 -14 -97 -15 -11 -10 -13 36 -13 46 0
51 2 36 13 -14 10 -16 25 -14 87 3 72 4 75 31 85 41 14 57 -12 57 -89 0 -64
-5 -79 -30 -89 -8 -3 12 -5 45 -5 33 0 53 2 45 5 -25 10 -30 25 -30 105 0 105
-32 135 -94 87 l-26 -20 0 20 c0 12 -1 21 -3 21 -1 0 -17 -4 -35 -10 -23 -6
-39 -6 -52 2 -14 9 -24 8 -44 -5 -23 -15 -26 -15 -26 -2 0 15 -3 16 -30 9z"/>
<path d="M1658 4360 c20 -9 22 -16 22 -93 0 -69 3 -87 18 -100 25 -22 44 -21
76 4 l26 20 0 -20 c0 -18 4 -20 28 -15 35 9 38 12 24 26 -7 7 -12 46 -12 100
l0 88 -37 -1 c-21 -1 -30 -3 -20 -6 14 -4 17 -17 17 -83 0 -84 -10 -104 -52
-98 -22 3 -23 8 -26 96 l-3 92 -42 -1 c-35 0 -38 -2 -19 -9z"/>
<path d="M4775 3879 c-304 -26 -583 -150 -783 -347 -198 -197 -310 -456 -337
-785 -6 -69 -9 -78 -25 -74 -10 2 -23 1 -30 -3 -20 -12 -3 -40 24 -40 23 0 25
-4 31 -77 21 -238 87 -433 217 -636 31 -47 48 -84 45 -95 -3 -9 -17 -49 -31
-89 -14 -39 -36 -124 -48 -190 -29 -159 -31 -522 -4 -718 20 -148 58 -339 85
-425 10 -33 17 -60 16 -62 -2 -2 -89 -2 -194 0 -162 2 -191 5 -191 18 0 17
-17 25 -221 99 l-151 55 -680 0 -681 0 7 42 c4 23 8 43 9 44 2 2 835 24 893
24 39 0 45 5 118 85 l78 85 -31 148 c-28 134 -100 487 -330 1610 -45 217 -84
405 -87 418 l-6 24 -1007 0 -1006 0 -81 -75 -81 -74 4 -228 5 -228 165 -610
c90 -335 179 -665 198 -732 l34 -122 -34 -277 c-19 -152 -39 -282 -46 -290 -9
-11 -66 -14 -315 -14 l-304 0 0 -25 0 -25 282 0 283 0 -103 -103 c-56 -56
-102 -110 -102 -120 0 -16 42 -17 683 -17 l682 -1 199 53 c121 32 200 57 204
66 3 8 -8 24 -24 38 l-29 23 738 1 737 0 0 30 0 30 203 0 202 0 17 -30 c23
-40 64 -40 135 0 l53 30 655 0 655 0 0 -30 c0 -47 27 -50 66 -7 l34 37 526 0
c289 1 528 -1 530 -2 2 -2 -234 -55 -524 -117 -290 -63 -583 -126 -652 -142
l-125 -27 77 -1 c56 -1 139 12 310 48 636 135 995 212 1011 217 12 4 17 16 17
40 l0 35 -312 -1 -313 -1 -7 118 c-24 411 -121 746 -315 1083 -41 72 -73 133
-71 134 117 81 251 216 328 330 97 145 170 323 211 516 31 143 33 415 5 535
-88 377 -302 594 -721 730 -232 75 -546 114 -770 94z m425 -75 c363 -53 631
-172 807 -357 150 -158 223 -367 223 -637 0 -265 -74 -525 -211 -747 -65 -103
-203 -247 -317 -331 -138 -102 -340 -205 -492 -253 l-55 -17 -47 79 c-132 220
-302 391 -473 477 -148 74 -337 102 -450 67 -69 -22 -141 -74 -192 -139 -35
-45 -38 -46 -51 -29 -57 76 -161 287 -176 358 l-6 30 127 0 c118 0 131 2 172
25 63 35 85 77 85 165 1 38 -3 82 -7 97 -6 22 -3 28 13 33 23 7 54 60 45 75
-10 17 -33 11 -40 -9 -3 -11 -22 -27 -42 -36 -32 -16 -56 -17 -191 -11 -85 4
-168 10 -184 13 l-31 6 7 86 c10 130 43 275 87 386 146 375 501 630 949 685
96 11 316 4 450 -16z m-2846 -909 c-26 -30 -53 -55 -58 -55 -147 -3 -1921 2
-1925 6 -3 3 19 27 49 54 l55 49 963 1 963 0 -47 -55z m306 -1040 c115 -566
210 -1037 210 -1045 0 -14 -99 -124 -105 -118 -2 2 -100 477 -219 1057 l-215
1054 52 58 c42 47 53 55 59 41 4 -9 102 -480 218 -1047z m-588 936 l188 -6
-109 -185 -109 -185 -837 -8 c-460 -5 -843 -6 -851 -3 -11 4 -14 43 -14 201
l0 195 773 -1 c424 -1 856 -4 959 -8z m438 -1075 c116 -565 210 -1031 210
-1036 0 -8 -246 53 -257 64 -3 3 -91 375 -195 826 l-188 820 107 180 c59 99
108 178 110 176 2 -2 98 -465 213 -1030z m1427 885 l158 -6 7 -49 c8 -61 -4
-130 -28 -157 -30 -34 -117 -52 -214 -46 -47 3 -92 8 -101 12 -18 7 -33 73
-44 193 l-7 73 35 -6 c20 -4 107 -10 194 -14z m-1878 -318 c117 -497 354
-1534 350 -1537 -4 -4 -552 -24 -557 -20 -2 1 20 161 49 355 l53 354 -64 253
c-36 140 -67 257 -70 261 -3 5 -226 11 -496 15 l-491 8 -6 -24 c-3 -13 -29
-220 -58 -460 -30 -241 -57 -438 -61 -438 -4 0 -8 6 -8 13 0 6 -78 300 -174
652 l-173 640 511 5 c281 3 660 6 843 8 l331 2 21 -87z m2197 -253 c-45 -23
-66 -39 -66 -51 0 -5 18 2 39 16 90 56 172 55 279 -6 28 -17 52 -26 52 -20 0
7 -11 17 -25 23 -32 14 -33 30 -1 18 114 -43 226 -121 331 -231 82 -86 241
-311 231 -327 -11 -19 -165 -37 -306 -37 -156 1 -234 16 -354 69 -130 58 -301
191 -407 317 -46 55 -45 61 25 137 66 72 137 109 211 111 l30 0 -39 -19z
m-2487 -116 c4 -4 -165 -1438 -176 -1496 l-5 -28 -454 0 c-426 0 -454 1 -454
18 0 9 36 310 80 667 44 358 85 691 91 740 6 50 12 95 14 101 3 9 121 10 452
7 246 -3 450 -7 452 -9z m94 -297 l48 -202 -74 -485 -73 -485 -62 -22 c-57
-21 -62 -21 -62 -5 -1 36 165 1402 170 1402 3 0 26 -91 53 -203z m2271 -5
c113 -100 233 -170 371 -215 180 -59 309 -61 595 -11 34 6 36 4 58 -41 12 -25
19 -52 15 -58 -4 -7 -61 -77 -127 -157 -274 -330 -550 -579 -829 -749 -64 -39
-71 -41 -146 -41 l-79 0 -16 48 c-46 139 -89 392 -107 617 -19 247 4 517 58
690 14 44 27 83 29 87 3 4 30 -21 61 -55 32 -34 84 -85 117 -115z m1600 -71
l56 -95 0 -112 c0 -199 -43 -454 -115 -682 -55 -172 -135 -336 -155 -315 -5 4
-16 51 -25 103 -41 243 -111 496 -199 718 l-53 132 82 99 c76 92 88 103 177
149 53 27 113 61 134 76 21 14 39 24 40 23 1 -1 27 -45 58 -96z m-470 -145
c-21 -25 -41 -46 -45 -46 -9 0 -31 52 -24 59 8 8 99 39 104 35 1 -1 -14 -23
-35 -48z m634 -188 c95 -242 144 -473 158 -748 l7 -125 -232 0 c-127 0 -231 1
-231 3 0 1 16 33 35 71 98 196 205 636 205 846 0 30 4 55 9 55 4 0 26 -46 49
-102z m-628 -126 c77 -206 155 -501 184 -699 l6 -43 -601 -2 c-330 -2 -602 -1
-604 1 -2 1 42 33 98 70 237 156 477 381 717 669 107 129 136 159 143 146 5
-9 30 -73 57 -142z m-2767 -397 c33 -7 61 -16 64 -18 2 -3 -81 -8 -184 -11
-103 -3 -268 -9 -365 -12 -176 -6 -178 -6 -178 15 0 19 6 21 58 22 31 1 129 5
217 9 262 11 327 10 388 -5z m637 -315 l0 -100 -559 0 -559 0 -106 85 c-58 47
-106 92 -106 100 0 13 87 15 665 15 l665 0 0 -100z m323 -8 c45 -15 47 -17 47
-54 l0 -38 -166 0 -166 0 3 88 c1 48 4 90 6 94 2 4 54 -11 116 -34 62 -22 133
-47 160 -56z m-1538 -69 c108 -87 130 -109 115 -115 -39 -14 -300 -81 -303
-77 -2 2 -22 54 -44 114 -23 61 -44 117 -48 126 -5 13 6 21 52 37 32 11 66 21
76 21 10 1 79 -47 152 -106z m-281 -66 c25 -68 46 -126 46 -130 0 -4 -284 -7
-631 -7 l-630 0 123 130 123 130 461 0 461 0 47 -123z m2406 59 c0 -9 -30 -14
-35 -6 -4 6 3 10 14 10 12 0 21 -2 21 -4z"/>
<path d="M5130 2734 c-142 -42 -429 -102 -533 -110 -66 -6 -80 -4 -97 11 -11
10 -20 28 -20 40 0 27 -8 35 -26 28 -34 -13 0 -103 45 -118 13 -4 16 -13 13
-34 -2 -16 3 -54 12 -84 46 -159 275 -244 517 -193 174 37 272 140 285 298 6
80 -29 192 -61 194 -11 1 -72 -13 -135 -32z m141 -51 c32 -94 5 -216 -64 -285
-78 -78 -256 -116 -408 -88 -132 25 -222 97 -239 191 -13 69 -9 73 89 87 130
17 320 57 456 96 66 19 128 34 137 35 11 1 21 -12 29 -36z"/>
<path d="M4660 2495 c-23 -28 9 -72 45 -59 36 14 24 74 -15 74 -10 0 -23 -7
-30 -15z"/>
<path d="M4270 2682 c0 -15 -7 -38 -16 -50 -22 -32 -7 -43 17 -13 20 24 26 91
9 91 -5 0 -10 -12 -10 -28z"/>
<path d="M4320 2676 c0 -19 9 -44 19 -57 24 -30 39 -19 17 13 -9 12 -16 35
-16 50 0 16 -4 28 -10 28 -5 0 -10 -15 -10 -34z"/>
<path d="M3801 2512 c-20 -38 31 -71 59 -37 6 8 9 23 5 35 -8 25 -51 27 -64 2z"/>
<path d="M4328 1863 c-36 -9 -17 -20 27 -15 25 2 58 -1 75 -8 17 -7 33 -10 37
-6 3 3 -10 13 -30 21 -35 15 -74 17 -109 8z"/>
</g>
</svg>
